<svg width="17" height="17" viewBox="0 0 17 17" fill="none" xmlns="http://www.w3.org/2000/svg">
<g clip-path="url(#clip0)">
<path d="M10.0575 8.51392L16.6769 1.89425C17.1077 1.46367 17.1077 0.76748 16.6769 0.336898C16.2463 -0.0936836 15.5502 -0.0936836 15.1196 0.336898L8.49991 6.95656L1.88044 0.336898C1.44966 -0.0936836 0.75367 -0.0936836 0.323088 0.336898C-0.107696 0.76748 -0.107696 1.46367 0.323088 1.89425L6.94255 8.51392L0.323088 15.1336C-0.107696 15.5642 -0.107696 16.2604 0.323088 16.6909C0.537673 16.9057 0.81982 17.0136 1.10177 17.0136C1.38371 17.0136 1.66566 16.9057 1.88044 16.6909L8.49991 10.0713L15.1196 16.6909C15.3344 16.9057 15.6163 17.0136 15.8983 17.0136C16.1802 17.0136 16.4621 16.9057 16.6769 16.6909C17.1077 16.2604 17.1077 15.5642 16.6769 15.1336L10.0575 8.51392Z" fill="white"/>
</g>
<defs>
<clipPath id="clip0">
<rect width="17" height="17" fill="white"/>
</clipPath>
</defs>
</svg>
