<svg width="23" height="16" viewBox="0 0 23 16" fill="none" xmlns="http://www.w3.org/2000/svg">
<path d="M11.1776 4.57265C9.49585 4.57265 8.12915 5.93934 8.12915 7.62107C8.12915 9.3028 9.49585 10.6695 11.1776 10.6695C12.8593 10.6695 14.226 9.3028 14.226 7.62107C14.226 5.93934 12.8593 4.57265 11.1776 4.57265Z" fill="white"/>
<path d="M11.1776 0C6.09685 0 1.75794 3.16017 0 7.62106C1.75794 12.0819 6.09685 15.2421 11.1776 15.2421C16.2634 15.2421 20.5972 12.0819 22.3552 7.62106C20.5972 3.16017 16.2634 0 11.1776 0ZM11.1776 12.7017C8.37302 12.7017 6.09685 10.4256 6.09685 7.62102C6.09685 4.81646 8.37302 2.54034 11.1776 2.54034C13.9821 2.54034 16.2583 4.81651 16.2583 7.62106C16.2583 10.4256 13.9821 12.7017 11.1776 12.7017Z" fill="white"/>
</svg>
