<svg width="36" height="36" viewBox="0 0 36 36" fill="none" xmlns="http://www.w3.org/2000/svg">
<path d="M18 0C8.05886 0 0 8.05886 0 18C0 27.9411 8.05886 35.9999 18 35.9999C27.9411 35.9999 35.9999 27.9411 35.9999 18C35.9894 8.06331 27.9367 0.0106222 18 0ZM25.5804 18.5735C25.4558 18.8234 25.2533 19.0261 25.0032 19.1507V19.1571L14.7176 24.3C14.0823 24.6174 13.3101 24.3598 12.9927 23.7246C12.9024 23.544 12.856 23.3447 12.8571 23.1428V12.8572C12.8568 12.1471 13.4321 11.5712 14.1422 11.5708C14.3419 11.5707 14.5389 11.6171 14.7176 11.7064L25.0032 16.8493C25.6388 17.166 25.8972 17.938 25.5804 18.5735Z" fill="white"/>
</svg>
